<svg xmlns="http://www.w3.org/2000/svg" viewBox="0 0 36.52 63.46"><defs><style>.cls-1{fill:#2aa7df;}</style></defs><title>drop</title><g id="Layer_2" data-name="Layer 2"><g id="Layer_1-2" data-name="Layer 1"><g id="k0jTEe"><path class="cls-1" d="M36.52,42.82c-.29,7.81-3.34,14.28-9.92,18.2-7.32,4.37-15.8,2.76-21.49-4a22.34,22.34,0,0,1-5-17c.58-6.28,3-11.82,5.72-17.21,2.86-5.6,6.23-10.83,9.24-16.32A43.93,43.93,0,0,0,17.91.49C18,.29,18,0,18.28,0s.22.3.29.48A79.32,79.32,0,0,0,24.5,11.86a144.11,144.11,0,0,1,8.42,15.67A41.9,41.9,0,0,1,36.3,39.24C36.42,40.29,36.43,41.35,36.52,42.82ZM8,27.28c-.08,0-.13,0-.14,0a3.39,3.39,0,0,0-.25.42A42.24,42.24,0,0,0,3.82,40.1c-.78,6.77,2,13.47,7.25,17A9.73,9.73,0,0,0,14,58.46a21.16,21.16,0,0,1-1.78-1.93c-4.37-6.17-5.85-13.26-5.31-21A66.69,66.69,0,0,1,8,27.28Z"/></g></g></g></svg>