<svg id="Layer_1" data-name="Layer 1" xmlns="http://www.w3.org/2000/svg" viewBox="0 0 393.59 153.62"><defs><style>.cls-1{fill:#010101;}.cls-2{fill:#2aa7df;}</style></defs><title>logo</title><path class="cls-1" d="M145.19,78.5,140.05,65H108L102.82,78.5H88.87l27.48-70h15.32l27.48,70ZM124,20.81,111.42,54.17h25.18Z" transform="translate(-9.74 -8.54)"/><path class="cls-1" d="M176.54,78.5V19.34H155.36V8.54H210v10.8H188.81V78.5Z" transform="translate(-9.74 -8.54)"/><path class="cls-1" d="M220.37,78.5v-70h47.94v10.8H232.65v18h34.93v10.8H232.65V67.7h35.66V78.5Z" transform="translate(-9.74 -8.54)"/><path class="cls-1" d="M320.85,78.5,305.43,52.38H293.15V78.5H280.88v-70h30.73c13.85,0,23,8.91,23,21.92,0,12.38-8.18,19.19-16.67,20.56l17.2,27.48ZM322,30.36c0-6.71-5-11-12-11H293.15V41.58H310C317,41.58,322,37.18,322,30.36Z" transform="translate(-9.74 -8.54)"/><path class="cls-1" d="M117.55,90.94l-27.48,70h14l5.14-13.53h32.1l5.14,13.53h14l-27.48-70Zm-4.93,45.63,12.59-33.35,12.59,33.35Z" transform="translate(-9.74 -8.54)"/><path class="cls-1" d="M177.22,109.4c0-5.14,4.61-8.71,11.75-8.71a28.52,28.52,0,0,1,20.35,8.08l6.92-9.13c-6.4-6.3-15.31-9.86-26.12-9.86-15.42,0-25.49,8.91-25.49,20.56,0,25.7,40.7,16.57,40.7,31.26,0,4.72-3.88,9.65-14,9.65a30.05,30.05,0,0,1-22.13-9.76L162.33,151c6.29,6.5,15.63,11.12,28.53,11.12,18.78,0,27.06-10.07,27.06-21.71C217.92,114.43,177.22,122.51,177.22,109.4Z" transform="translate(-9.74 -8.54)"/><polygon class="cls-1" points="213.83 93.2 235.02 93.2 235.02 152.36 247.29 152.36 247.29 93.2 268.48 93.2 268.48 82.4 213.83 82.4 213.83 93.2"/><polygon class="cls-1" points="278.85 152.36 326.78 152.36 326.78 141.56 291.12 141.56 291.12 122.05 326.05 122.05 326.05 111.24 291.12 111.24 291.12 93.2 326.78 93.2 326.78 82.4 278.85 82.4 278.85 152.36"/><path class="cls-1" d="M386.13,133.42c8.5-1.36,16.67-8.18,16.67-20.56,0-13-9.12-21.92-23-21.92H349.1v70h12.27V134.78h12.27l15.42,26.12h14.26ZM361.37,124V101.74h16.89c6.92,0,12,4.3,12,11s-5,11.22-12,11.22Z" transform="translate(-9.74 -8.54)"/><path class="cls-1" d="M46.09,116.62C31.39,116.62,22,105.54,22,90.94H9.74v70H22v-41.7a36.38,36.38,0,0,0,24.07,8.51,36.36,36.36,0,0,0,24.07-8.55V160.9H82.43v-70H70.16C70.16,105.54,60.68,116.62,46.09,116.62Z" transform="translate(-9.74 -8.54)"/><g id="k0jTEe"><path class="cls-2" d="M64.35,88.68c-.29,7.81-3.34,14.28-9.92,18.2-7.32,4.37-15.8,2.76-21.49-4a22.34,22.34,0,0,1-5-17c.58-6.28,3-11.82,5.72-17.21C36.53,63,39.9,57.79,42.91,52.3a43.93,43.93,0,0,0,2.83-5.95c.07-.2.08-.53.37-.49s.22.3.29.48a79.32,79.32,0,0,0,5.92,11.38,144.11,144.11,0,0,1,8.42,15.67,41.9,41.9,0,0,1,3.39,11.72C64.25,86.15,64.26,87.21,64.35,88.68ZM35.83,73.15c-.08,0-.13,0-.14,0a3.39,3.39,0,0,0-.25.42A42.24,42.24,0,0,0,31.65,86c-.78,6.77,2,13.47,7.25,17a9.73,9.73,0,0,0,2.9,1.38A21.16,21.16,0,0,1,40,102.39c-4.37-6.17-5.85-13.26-5.31-21A66.69,66.69,0,0,1,35.83,73.15Z" transform="translate(-9.74 -8.54)"/></g><path class="cls-1" d="M22.1,8.54V52.05L43.49,8.54h5.24l21.5,43.51V8.54H82.51v70H70.1l-24-48-24,48H9.82v-70Z" transform="translate(-9.74 -8.54)"/></svg>