<svg xmlns="http://www.w3.org/2000/svg" viewBox="0 0 393.59 153.62"><defs><style>.cls-1{fill:#fff;}.cls-2{fill:#2aa7df;}</style></defs><title>white-logo</title><g id="Layer_2" data-name="Layer 2"><g id="Layer_1-2" data-name="Layer 1"><path class="cls-1" d="M135.45,70l-5.14-13.53H98.21L93.07,70H79.12L106.61,0h15.32L149.4,70ZM114.26,12.27,101.68,45.63h25.18Z"/><path class="cls-1" d="M166.8,70V10.8H145.61V0h54.65V10.8H179.07V70Z"/><path class="cls-1" d="M210.63,70V0h47.94V10.8H222.9v18h34.93v10.8H222.9V59.16h35.66V70Z"/><path class="cls-1" d="M311.11,70,295.68,43.84H283.41V70H271.14V0h30.73c13.85,0,23,8.91,23,21.92,0,12.38-8.18,19.19-16.67,20.56L325.37,70Zm1.15-48.15c0-6.71-5-11-12-11H283.41V33H300.3C307.22,33,312.26,28.64,312.26,21.82Z"/><path class="cls-1" d="M107.81,82.4l-27.48,70h14l5.14-13.53h32.1l5.14,13.53h14l-27.48-70ZM102.88,128l12.59-33.35L128.05,128Z"/><path class="cls-1" d="M167.48,100.85c0-5.14,4.61-8.71,11.75-8.71a28.52,28.52,0,0,1,20.35,8.08l6.92-9.13c-6.4-6.3-15.31-9.86-26.12-9.86-15.42,0-25.49,8.91-25.49,20.56,0,25.7,40.7,16.57,40.7,31.26,0,4.72-3.88,9.65-14,9.65A30.05,30.05,0,0,1,159.51,133l-6.92,9.55c6.29,6.5,15.63,11.12,28.53,11.12,18.78,0,27.06-10.07,27.06-21.71C208.18,105.89,167.48,114,167.48,100.85Z"/><polygon class="cls-1" points="213.83 93.2 235.02 93.2 235.02 152.36 247.29 152.36 247.29 93.2 268.48 93.2 268.48 82.4 213.83 82.4 213.83 93.2"/><polygon class="cls-1" points="278.85 152.36 326.78 152.36 326.78 141.56 291.12 141.56 291.12 122.05 326.05 122.05 326.05 111.24 291.12 111.24 291.12 93.2 326.78 93.2 326.78 82.4 278.85 82.4 278.85 152.36"/><path class="cls-1" d="M376.39,124.88c8.5-1.36,16.67-8.18,16.67-20.56,0-13-9.12-21.92-23-21.92H339.36v70h12.27V126.24H363.9l15.42,26.12h14.26Zm-24.76-9.44V93.2h16.89c6.92,0,12,4.3,12,11s-5,11.22-12,11.22Z"/><path class="cls-1" d="M36.35,108.08c-14.7,0-24.07-11.08-24.07-25.68H0v70H12.27v-41.7a36.38,36.38,0,0,0,24.07,8.51,36.36,36.36,0,0,0,24.07-8.55v41.74H72.69v-70H60.42C60.42,97,50.94,108.08,36.35,108.08Z"/><g id="k0jTEe"><path class="cls-2" d="M54.6,80.14c-.29,7.81-3.34,14.28-9.92,18.2-7.32,4.37-15.8,2.76-21.49-4a22.34,22.34,0,0,1-5-17c.58-6.28,3-11.82,5.72-17.21,2.86-5.6,6.23-10.83,9.24-16.32A43.93,43.93,0,0,0,36,37.82c.07-.2.08-.53.37-.49s.22.3.29.48a79.32,79.32,0,0,0,5.92,11.38A144.11,144.11,0,0,1,51,64.85a41.9,41.9,0,0,1,3.39,11.72C54.51,77.61,54.52,78.67,54.6,80.14ZM26.09,64.61c-.09,0-.13,0-.14,0a3.39,3.39,0,0,0-.25.42,42.24,42.24,0,0,0-3.8,12.39c-.78,6.77,2,13.47,7.25,17A9.73,9.73,0,0,0,32,95.78a21.16,21.16,0,0,1-1.78-1.93c-4.37-6.17-5.85-13.26-5.31-21A66.69,66.69,0,0,1,26.09,64.61Z"/></g><path class="cls-1" d="M12.35,0V43.51L33.75,0H39L60.5,43.51V0H72.77V70H60.36l-24-48-24,48H.08V0Z"/></g></g></svg>